# AST/ASF file generated using VICON BodyLanguage
# -----------------------------------------------
:version 1.10
:name VICON
:units
  mass 1.0
  length 0.45
  angle deg
:documentation
   .ast/.asf automatically generated from VICON data using
   VICON BodyBuilder and BodyLanguage model FoxedUp or BRILLIANT.MOD
:root
   order TX TY TZ RX RY RZ
   axis XYZ
   position 0 0 0  
   orientation 0 0 0 
:bonedata
  begin
     id 1 
     name lhipjoint
     direction 0.650112 -0.723553 0.232005 
     length 2.45805 
     axis 0 0 0  XYZ
  end
  begin
     id 2 
     name lfemur
     direction 0.34202 -0.939693 0  
     length 7.00073  
     axis 0 0 20  XYZ
    dof rx ry rz
    limits (-160.0 20.0)
           (-70.0 70.0)
           (-60.0 70.0)
  end
  begin
     id 3 
     name ltibia
     direction 0.34202 -0.939693 0   
     length 7.8748   
     axis 0 0 20   XYZ
    dof rx
    limits (-10.0 170.0)
  end
  begin
     id 4 
     name lfoot
     direction 0.0542825 -0.14914 0.987325   
     length 1.75978   
     axis -90 7.62852e-016 20   XYZ
    dof rx rz
    limits (-45.0 90.0)
           (-70.0 20.0)
  end
  begin
     id 5 
     name ltoes
     direction 1.53509e-011 -4.21906e-011 1   
     length 0.893912   
     axis -90 7.62852e-016 20   XYZ
    dof rx
    limits (-90.0 20.0)
  end
  begin
     id 6 
     name rhipjoint
     direction -0.637897 -0.733345 0.235145   
     length 2.42522  
     axis 0 0 0  XYZ 
  end
  begin
     id 7 
     name rfemur
     direction -0.34202 -0.939693 0   
     length 7.02549   
     axis 0 0 -20   XYZ
    dof rx ry rz
    limits (-160.0 20.0)
           (-70.0 70.0)
           (-70.0 60.0)
  end
  begin
     id 8 
     name rtibia
     direction -0.34202 -0.939693 0   
     length 7.71512   
     axis 0 0 -20   XYZ
    dof rx
    limits (-10.0 170.0)
 end
 begin
     id 9 
     name rfoot
     direction -0.0822618 -0.226012 0.970645   
     length 1.90014  
     axis -90 -7.62852e-016 -20   XYZ
    dof rx rz
    limits (-45.0 90.0)
           (-20.0 70.0)
  end
  begin
     id 10 
     name rtoes
     direction -1.53542e-011 -4.21872e-011 1   
     length 0.957341   
     axis -90 -7.62852e-016 -20   XYZ
    dof rx
    limits (-90.0 20.0)
  end
  begin
     id 11 
     name lowerback
     direction -0.0022947 0.999774 -0.0211557   
     length 1.89909   
     axis 0 0 0   XYZ
    dof rx ry rz
    limits (-20.0 45.0)
           (-30.0 30.0)
           (-30.0 30.0)
  end
  begin
     id 12 
     name upperback
     direction 0.0107737 0.998635 0.0511027   
     length 1.8853   
     axis 0 0 0   XYZ
    dof rx ry rz
    limits (-20.0 45.0)
           (-30.0 30.0)
           (-30.0 30.0)
  end
  begin
     id 13 
     name thorax
     direction 0.011824 0.998136 0.0598754   
     length 1.88911   
     axis 0 0 0   XYZ
    dof rx ry rz
    limits (-20.0 45.0)
           (-30.0 30.0)
           (-30.0 30.0)
  end
  begin
     id 14 
     name lowerneck
     direction -0.0685355 0.990319 0.120714   
     length 1.91222   
     axis 0 0 0   XYZ
    dof rx ry rz
    limits (-20.0 45.0)
           (-30.0 30.0)
           (-30.0 30.0)
  end
  begin
     id 15 
     name upperneck
     direction 0.0886204 0.955665 -0.280805   
     length 1.92526   
     axis 0 0 0   XYZ
    dof rx ry rz
    limits (-20.0 45.0)
           (-30.0 30.0)
           (-30.0 30.0)
  end
  begin
     id 16
     name head
     direction 0.0233423 0.993502 -0.111393  
     length 1.96056  
     axis 0 0 0   XYZ
    dof rx ry rz
    limits (-20.0 45.0)
           (-30.0 30.0)
           (-30.0 30.0)
  end
  begin
     id 17 
     name lclavicle
     direction 0.941873 0.32922 0.0670041  
     length 3.31705  
     axis 0 0 0   XYZ
    dof ry rz
    limits (-20.0 10.0)
           (0.0 20.0)
  end
  begin
     id 18 
     name lhumerus
     direction 1 -4.4898e-011 3.38707e-028   
     length 5.29277   
     axis 180 -30 -90   XYZ
    dof rx ry rz
    limits (-60.0 90.0)
           (-90.0 90.0)
           (-90.0 90.0)
  end
  begin
     id 19
     name lradius
     direction 1 -4.48952e-011 1.63213e-028   
     length 2.85226   
     axis 180 -30 -90   XYZ
    dof rx
    limits (-10.0 170.0)
  end
  begin
     id 20
     name lwrist
     direction 1 -4.49001e-011 1.27856e-027   
     length 1.42613   
     axis -1.61767e-015 90 90   XYZ
    dof ry
    limits (-180.0 0.0)
 end
  begin
     id 21 
     name lhand
     direction 1 -4.48976e-011 2.55931e-027   
     length 0.602097   
     axis -1.63363e-015 90 90   XYZ
    dof rx rz
    limits (-90.0 90.0)
           (-45.0 45.0)
  end
  begin
     id 22 
     name lfingers
     direction 1 -4.48986e-011 5.11684e-027   
     length 0.485426   
     axis -3.26723e-015 90 90   XYZ
    dof rx
    limits (0.0 90.0)
  end
  begin
     id 23
     name lthumb
     direction 0.707107 -6.34915e-011 0.707107   
     length 0.696978   
     axis -90 45 -2.25915e-014   XYZ
    dof rx rz
    limits (-45.0 45.0)
           (-45.0 45.0)
  end
  begin
     id 24 
     name rclavicle
     direction -0.939974 0.327078 0.0973096   
     length 3.10337  
     axis 0 0 0   XYZ 
    dof ry rz
    limits (-10.0 20.0)
           (-20.0 0.0)
  end
  begin
     id 25 
     name rhumerus
     direction -1 -4.48975e-011 1.83745e-027  
     length 5.13304   
     axis 180 30 90   XYZ
    dof rx ry rz
    limits (-90.0 60.0)
           (-90.0 90.0)
           (-90.0 90.0)
  end
  begin
     id 26 
     name rradius
     direction -1 -4.48977e-011 7.1775e-029   
     length 2.74305   
     axis 180 30 90   XYZ
    dof rx
    limits (-10.0 170.0)
  end
  begin
     id 27 
     name rwrist
     direction -1 -4.48977e-011 1.27963e-027   
     length 1.37152   
     axis -1.61767e-015 -90 -90   XYZ
    dof ry
    limits (-180.0 0.0)
  end
  begin
     id 28
     name rhand
     direction -1 -4.4888e-011 2.56782e-027   
     length 0.767976   
     axis -1.63363e-015 -90 -90   XYZ
    dof rx rz
    limits (-90.0 90.0)
           (-45.0 45.0)
  end
  begin
     id 29
     name rfingers
     direction -1 -4.48947e-011 5.12384e-027   
     length 0.619162   
     axis -3.26723e-015 -90 -90   XYZ
    dof rx
    limits (0.0 90.0)
  end
  begin
     id 30
     name rthumb
     direction -0.707107 -6.34857e-011 0.707107   
     length 0.888997   
     axis -90 -45 2.25915e-014   XYZ
    dof rx rz
    limits (-45.0 45.0)
           (-45.0 45.0)
  end
:hierarchy
  begin
    root lhipjoint rhipjoint lowerback
    lhipjoint lfemur
    lfemur ltibia
    ltibia lfoot
    lfoot ltoes
    rhipjoint rfemur
    rfemur rtibia
    rtibia rfoot
    rfoot rtoes
    lowerback upperback
    upperback thorax
    thorax lowerneck lclavicle rclavicle
    lowerneck upperneck
    upperneck head
    lclavicle lhumerus
    lhumerus lradius
    lradius lwrist
    lwrist lhand lthumb
    lhand lfingers
    rclavicle rhumerus
    rhumerus rradius
    rradius rwrist
    rwrist rhand rthumb
    rhand rfingers
  end

#!OML:ASF F:\VICON\USERDATA\INSTALL\rory3\rory3.ASF
:FULLY-SPECIFIED
:DEGREES
480
root -0.166462 16.3479 0.806011 -2.04252 1.49078 -1.0865
lowerback -0.68415 0.152429 -2.17823
upperback -0.503711 0.216711 3.23507
thorax -0.154196 0.119869 4.55746
lowerneck -8.99832 -10.3906 -17.5148
upperneck 23.9646 -15.5134 15.2214
head 11.9755 -7.20568 6.34918
rclavicle 1.83876e-015 -7.95139e-016
rhumerus -31.1181 -2.80705 -82.9847
rradius 27.4982
rwrist 22.2167
rhand -13.2859 13.3278
rfingers 7.12502
rthumb 12.8176 -16.2587
lclavicle 1.83876e-015 -7.95139e-016
lhumerus -26.9906 -12.8591 99.5456
lradius 25.2866
lwrist -7.97475
lhand -11.1616 23.4221
lfingers 7.12502
lthumb 14.8648 52.8688
rfemur -11.5281 1.80239 20.027
rtibia 43.8658
rfoot -28.784 -3.88097
rtoes -9.8868
lfemur -14.4363 -5.00777 -15.1865
ltibia 45.9118
lfoot -27.231 -2.12017
ltoes -17.075
481
root -0.163241 16.36 0.803937 -2.09975 1.54478 -1.12595
lowerback -0.653264 0.11325 -2.14645
upperback -0.48859 0.163794 3.27268
thorax -0.150967 0.0930078 4.57824
lowerneck -8.82241 -10.4052 -17.5774
upperneck 24.0515 -15.6573 15.5291
head 12.0405 -7.25611 6.46727
rclavicle 5.96354e-016 1.27222e-014
rhumerus -30.9997 -1.65435 -83.2027
rradius 27.9559
rwrist 21.5306
rhand -13.5335 13.4877
rfingers 7.12502
rthumb 12.5789 -16.1136
lclavicle 5.96354e-016 1.27222e-014
lhumerus -26.8323 -13.2941 99.4942
lradius 25.3283
lwrist -8.20038
lhand -10.4526 22.8714
lfingers 7.12502
lthumb 15.5478 52.2664
rfemur -11.3157 1.72246 20.031
rtibia 43.5697
rfoot -28.6542 -3.78159
rtoes -9.80182
lfemur -14.2987 -5.07069 -15.1732
ltibia 45.7318
lfoot -27.1696 -1.99826
ltoes -17.8658
482
root -0.162384 16.37 0.800447 -2.13131 1.58281 -1.32963
lowerback -0.591462 0.0939582 -1.95881
upperback -0.511235 0.137377 3.34191
thorax -0.206035 0.0807141 4.54334
lowerneck -8.6483 -10.4333 -17.6447
upperneck 24.1091 -15.8216 15.8532
head 12.102 -7.31497 6.58825
rclavicle -4.42296e-015 -7.95139e-016
rhumerus -30.9741 -0.539091 -83.4171
rradius 28.4698
rwrist 21.0049
rhand -13.6455 13.6299
rfingers 7.12502
rthumb 12.4709 -15.9781
lclavicle -4.42296e-015 -7.95139e-016
lhumerus -26.732 -13.747 99.456
lradius 25.2968
lwrist -8.67256
lhand -10.0457 22.4285
lfingers 7.12502
lthumb 15.9397 51.7926
rfemur -11.1331 1.72371 20.2499
rtibia 43.2416
rfoot -28.5021 -3.85757
rtoes -10.6741
lfemur -14.1983 -5.08687 -14.9428
ltibia 45.5454
lfoot -27.0425 -2.15579
ltoes -17.4349
483
root -0.163197 16.3819 0.797244 -2.13773 1.63425 -1.39921
lowerback -0.572933 0.0770514 -1.89997
upperback -0.526382 0.114804 3.35166
thorax -0.22975 0.0698804 4.51989
lowerneck -8.50263 -10.4414 -17.6133
upperneck 24.1516 -15.9417 16.0892
head 12.1359 -7.35204 6.66445
rclavicle -2.23633e-015 -2.14687e-014
rhumerus -30.9755 0.492363 -83.6579
rradius 29.0225
rwrist 20.7362
rhand -13.6311 13.8341
rfingers 7.12502
rthumb 12.4848 -15.773
lclavicle -2.23633e-015 -2.14687e-014
lhumerus -26.6421 -14.3409 99.4549
lradius 25.2455
lwrist -9.07463
lhand -10.0065 22.1997
lfingers 7.12502
lthumb 15.9774 51.5608
rfemur -10.9799 1.76935 20.3436
rtibia 42.9341
rfoot -28.3648 -3.91732
rtoes -11.0765
lfemur -14.117 -5.10955 -14.8508
ltibia 45.3347
lfoot -26.8795 -2.41251
ltoes -16.0736
484
root -0.161377 16.3935 0.794099 -2.13459 1.68517 -1.3361
lowerback -0.589745 0.0509479 -1.94065
upperback -0.517708 0.0799401 3.33364
thorax -0.208218 0.0519714 4.52416
lowerneck -8.48891 -10.4766 -17.5434
upperneck 24.2639 -16.0547 16.1752
head 12.2038 -7.38842 6.67192
rclavicle 2.5842e-015 -1.82882e-014
rhumerus -30.9496 1.37241 -83.8229
rradius 29.5479
rwrist 20.9383
rhand -13.4857 14.1361
rfingers 7.12502
rthumb 12.6249 -15.4623
lclavicle 2.5842e-015 -1.82882e-014
lhumerus -26.6218 -14.908 99.476
lradius 25.3005
lwrist -9.35507
lhand -10.0513 22.0958
lfingers 7.12502
lthumb 15.9342 51.4604
rfemur -10.8491 1.75047 20.2695
rtibia 42.6548
rfoot -28.2447 -3.92824
rtoes -10.9169
lfemur -14.0301 -5.1618 -14.9233
ltibia 45.1153
lfoot -26.7685 -2.65124
ltoes -14.7105
485
root -0.158184 16.4046 0.791523 -2.11006 1.74359 -1.24073
lowerback -0.673705 0.0340243 -1.98264
upperback -0.476941 0.0570796 3.3011
thorax -0.117131 0.0383392 4.51415
lowerneck -8.54269 -10.5346 -17.5026
upperneck 24.3301 -16.195 16.3178
head 12.2828 -7.43083 6.69687
rclavicle 1.2424e-014 -3.4191e-014
rhumerus -30.8682 2.30194 -83.9971
rradius 30.0899
rwrist 21.1638
rhand -13.2237 14.036
rfingers 7.12502
rthumb 12.8776 -15.5467
lclavicle 1.2424e-014 -3.4191e-014
lhumerus -26.5635 -15.342 99.47
lradius 25.3276
lwrist -9.67183
lhand -10.3145 21.7511
lfingers 7.12502
lthumb 15.6807 51.1357
rfemur -10.7563 1.70765 20.1477
rtibia 42.4024
rfoot -28.1424 -3.87324
rtoes -10.4704
lfemur -13.9593 -5.24011 -15.0444
ltibia 44.8913
lfoot -26.6413 -2.61835
ltoes -14.7457
